<?xml version="1.0" standalone="no"?>
<!DOCTYPE svg PUBLIC "-//W3C//DTD SVG 20010904//EN"
 "http://www.w3.org/TR/2001/REC-SVG-20010904/DTD/svg10.dtd">
<svg version="1.0" xmlns="http://www.w3.org/2000/svg"
 width="700.000000pt" height="700.000000pt" viewBox="0 0 700.000000 700.000000"
 preserveAspectRatio="xMidYMid meet">
<metadata>
Created by potrace 1.14, written by Peter Selinger 2001-2017
</metadata>
<g transform="translate(0.000000,700.000000) scale(0.100000,-0.100000)"
fill="#000000" stroke="none">
<path d="M3247 6824 c-1 -1 -94 -5 -207 -8 -113 -4 -225 -9 -250 -11 -25 -2
-81 -7 -125 -10 -44 -3 -100 -8 -125 -10 -170 -17 -241 -24 -280 -30 -14 -2
-76 -11 -138 -20 -62 -9 -123 -18 -135 -21 -12 -2 -49 -9 -82 -14 -33 -6 -103
-20 -155 -31 -52 -11 -103 -22 -114 -25 -172 -35 -464 -154 -574 -233 -105
-77 -128 -189 -58 -284 30 -42 183 -141 311 -202 239 -115 550 -201 831 -230
136 -14 154 -20 154 -50 0 -14 -7 -26 -17 -29 -90 -28 -318 -21 -503 15 -323
62 -615 192 -780 347 -19 17 -37 32 -40 32 -4 0 -6 -17 -5 -37 1 -21 0 -43 -2
-49 -4 -11 -98 -12 -109 -1 -3 3 1 27 10 53 9 26 16 49 16 50 0 10 -115 83
-120 77 -4 -5 -17 -46 -30 -93 -13 -47 -25 -87 -26 -89 -2 -2 -36 -5 -76 -6
-120 -4 -201 -52 -247 -147 -15 -33 -130 -482 -155 -611 -3 -12 -19 -80 -36
-152 -17 -71 -43 -177 -57 -235 -14 -58 -27 -116 -29 -130 -3 -14 -10 -43 -16
-65 -6 -22 -10 -68 -10 -102 2 -149 111 -248 260 -236 80 6 139 40 183 105 8
12 22 12 179 3 74 -4 145 -8 158 -8 12 1 22 -4 23 -11 0 -6 2 -38 4 -71 4 -80
16 -106 67 -148 139 -113 390 -236 638 -310 209 -63 515 -128 720 -152 30 -4
57 -8 60 -10 3 -1 41 -6 85 -10 44 -4 82 -8 85 -10 3 -2 35 -6 70 -10 36 -3
81 -8 100 -10 101 -13 281 -23 437 -25 100 -2 112 -4 116 -21 3 -12 -1 -23
-11 -28 -47 -25 -268 -66 -420 -78 -126 -10 -490 -10 -612 0 -207 17 -447 61
-603 110 l-78 25 -9 -24 c-14 -35 -87 -338 -99 -409 -20 -114 -22 -130 -36
-238 -8 -60 -18 -150 -22 -200 -10 -123 -10 -519 0 -582 57 -355 236 -637 532
-836 182 -124 453 -234 670 -274 230 -42 287 -50 440 -62 179 -14 612 -7 760
13 277 37 510 92 670 158 l60 25 -110 -7 c-151 -10 -558 -9 -680 2 -55 4 -108
8 -118 8 -22 -1 -34 25 -18 41 6 6 46 12 88 13 80 1 262 13 292 19 9 1 48 6
86 9 113 11 352 54 455 81 223 60 409 148 537 254 62 51 60 61 -5 39 -71 -24
-387 -105 -439 -113 -21 -3 -48 -7 -58 -9 -38 -7 -110 -19 -130 -21 -11 -2
-56 -8 -100 -13 -82 -11 -132 -16 -290 -28 -98 -8 -494 -8 -590 0 -33 2 -79 5
-101 5 -42 1 -66 23 -45 44 5 5 67 10 137 12 172 5 328 18 484 41 19 2 49 6
65 9 372 49 886 207 1204 369 87 44 89 61 4 30 -142 -52 -461 -130 -643 -159
-302 -46 -464 -58 -790 -59 -216 0 -434 9 -451 19 -7 5 -7 31 2 39 2 2 76 7
164 11 88 3 174 8 190 9 17 2 62 7 100 10 100 10 277 34 370 51 44 8 96 17
115 20 19 3 53 11 75 16 22 6 48 13 59 15 132 25 484 137 644 205 147 62 277
127 270 135 -3 2 -44 -10 -92 -26 -210 -73 -587 -151 -846 -176 -30 -3 -73 -7
-95 -9 -192 -18 -669 -25 -815 -11 -30 2 -71 5 -91 5 -28 1 -38 6 -42 21 -3
11 -2 22 1 24 4 2 77 7 162 11 164 7 208 10 305 20 33 4 78 9 100 11 22 2 56
6 76 9 20 3 54 8 75 10 22 3 91 15 154 26 63 11 129 23 145 26 88 14 491 124
527 144 10 5 22 9 28 9 33 0 384 152 396 171 8 13 -4 11 -71 -12 -72 -24 -317
-85 -378 -94 -23 -4 -61 -11 -85 -16 -23 -5 -57 -11 -75 -14 -17 -2 -49 -6
-69 -9 -66 -10 -101 -15 -163 -21 -33 -3 -73 -8 -90 -10 -101 -13 -289 -20
-560 -20 -404 1 -462 4 -468 27 -7 25 10 33 78 34 68 2 260 13 320 19 22 2 69
7 105 10 36 3 76 8 90 10 14 2 45 6 70 9 25 3 63 8 85 11 94 14 162 25 185 30
13 2 42 7 64 11 22 3 43 7 46 9 3 2 21 6 40 9 42 7 275 66 380 96 181 51 471
167 479 191 2 8 -2 10 -15 5 -29 -11 -286 -76 -319 -80 -16 -3 -70 -12 -120
-21 -49 -9 -110 -18 -135 -20 -25 -3 -56 -7 -70 -10 -14 -2 -52 -7 -85 -10
-33 -3 -73 -8 -90 -10 -16 -2 -68 -6 -115 -10 -47 -3 -116 -8 -155 -11 -76 -5
-565 -5 -655 0 -30 2 -81 4 -112 5 -55 1 -58 2 -58 26 0 21 5 25 33 26 139 5
342 19 477 34 25 3 68 7 95 10 66 7 111 13 160 20 52 8 80 13 135 20 243 33
666 144 888 232 151 61 149 79 -5 42 -112 -27 -369 -70 -498 -84 -33 -3 -78
-8 -100 -11 -46 -5 -132 -11 -295 -21 -126 -7 -610 -7 -730 1 -41 2 -92 5
-112 5 -34 1 -38 4 -38 26 0 23 4 25 48 26 26 0 67 2 92 4 592 36 1003 100
1430 222 144 41 280 91 280 103 0 17 -19 20 -62 11 -24 -6 -56 -12 -73 -15
-16 -3 -40 -8 -52 -10 -11 -3 -43 -8 -70 -12 -26 -3 -55 -8 -63 -9 -9 -2 -43
-6 -75 -10 -33 -4 -67 -9 -76 -10 -8 -2 -53 -6 -100 -10 -46 -4 -100 -8 -119
-10 -184 -19 -728 -25 -1005 -12 -77 3 -141 6 -142 7 -10 1 -1 41 10 45 6 2
73 7 147 10 74 4 151 8 170 10 19 2 73 6 120 10 47 3 99 8 115 10 17 2 57 7
90 10 62 6 109 12 160 20 17 2 53 7 80 10 28 4 57 8 65 10 8 2 38 7 65 10 28
4 57 8 65 10 8 2 31 7 50 10 19 3 49 8 65 11 78 13 341 78 440 108 61 19 178
56 261 82 l151 47 23 45 c16 34 24 42 30 32 22 -43 121 -458 146 -614 3 -21 7
-46 9 -55 10 -54 16 -102 30 -221 13 -117 15 -140 22 -290 8 -192 9 -457 1
-570 -29 -386 -199 -723 -493 -975 -105 -90 -345 -229 -511 -296 -250 -100
-567 -180 -814 -205 -30 -3 -64 -7 -75 -9 -123 -24 -708 -24 -834 0 -13 2 -47
7 -75 9 -153 15 -463 85 -636 144 -398 137 -723 348 -910 592 -19 25 -37 47
-40 50 -4 3 -25 33 -48 67 -126 187 -208 427 -239 703 -16 131 -8 578 11 700
2 14 7 52 11 85 6 55 37 279 51 365 9 62 76 343 96 409 11 35 16 67 11 71 -4
4 -39 25 -78 46 -38 20 -96 55 -128 77 -32 21 -60 37 -62 35 -9 -9 -120 -409
-160 -573 -54 -227 -73 -322 -90 -465 -3 -25 -7 -61 -10 -80 -13 -99 -24 -204
-31 -300 -8 -100 -8 -461 0 -505 3 -16 8 -55 11 -85 3 -30 10 -73 15 -95 5
-22 12 -56 15 -75 3 -19 22 -82 41 -140 117 -347 348 -637 679 -852 295 -192
717 -343 1150 -413 105 -17 233 -34 290 -40 39 -3 86 -8 105 -10 124 -15 716
-22 875 -10 141 10 242 20 315 30 25 4 61 9 80 11 162 22 499 100 650 152 573
196 965 499 1173 906 81 159 143 363 163 531 2 22 7 60 10 85 7 49 6 436 -1
510 -2 25 -9 68 -15 95 -15 70 -291 905 -299 905 -91 5 -142 11 -166 20 -83
32 -135 108 -154 225 -12 73 -12 792 0 890 13 106 17 131 39 243 31 158 28
185 -30 305 -27 56 -52 117 -56 135 -4 17 -12 32 -18 33 -6 0 -64 1 -128 2
-101 2 -120 5 -145 23 -30 23 -60 93 -44 103 5 4 78 6 161 6 169 0 151 -9 165
80 17 105 76 180 207 264 63 41 66 44 54 65 -9 14 -12 53 -11 124 2 96 5 107
40 176 84 167 24 282 -207 394 -125 61 -383 145 -518 168 -14 3 -32 7 -40 9
-8 2 -28 7 -45 9 -16 3 -70 12 -120 21 -96 17 -195 33 -260 41 -22 2 -57 7
-77 9 -75 10 -114 14 -178 20 -36 3 -76 8 -90 10 -14 2 -74 7 -135 11 -60 3
-118 8 -127 9 -36 7 -714 24 -721 19z m383 -139 c118 -3 238 -7 265 -10 28 -2
91 -7 140 -10 195 -14 241 -18 335 -30 19 -2 58 -7 85 -10 28 -3 61 -7 75 -10
14 -3 42 -7 62 -10 108 -13 339 -61 467 -97 130 -36 274 -105 323 -153 62 -61
72 -143 26 -208 -45 -63 -350 -174 -608 -221 -19 -3 -46 -8 -60 -11 -14 -3
-41 -8 -60 -10 -19 -3 -64 -10 -100 -15 -36 -5 -83 -12 -105 -14 -22 -3 -58
-7 -80 -10 -44 -6 -111 -13 -195 -21 -30 -3 -71 -8 -90 -10 -19 -3 -78 -7
-130 -10 -52 -3 -133 -8 -180 -11 -106 -6 -668 -6 -813 0 -166 7 -355 20 -462
32 -27 3 -68 7 -90 9 -22 2 -60 7 -85 10 -25 3 -60 8 -78 10 -80 10 -216 32
-297 49 -173 36 -280 66 -350 96 -11 5 -49 21 -84 36 -74 30 -156 80 -188 115
-117 128 37 253 432 350 66 16 134 32 150 34 17 3 50 10 75 15 57 12 211 38
270 45 25 3 56 7 70 10 14 2 50 7 80 10 30 3 71 8 90 10 90 12 154 18 300 30
25 2 108 7 185 11 77 3 141 7 142 8 3 3 198 -1 483 -9z m-2674 -921 c-1 -8
-10 -24 -20 -36 -10 -12 -28 -37 -40 -57 -20 -35 -21 -47 -21 -438 0 -379 -1
-402 -18 -397 -9 3 -36 -4 -60 -14 -23 -11 -63 -26 -89 -32 -27 -7 -86 -39
-135 -72 -47 -33 -130 -89 -182 -125 -118 -81 -129 -91 -135 -127 -5 -30 15
-81 36 -89 8 -3 6 -6 -5 -6 -52 -2 -86 49 -82 124 1 28 17 109 34 180 18 72
50 207 72 300 22 94 44 188 50 210 5 22 12 49 14 60 2 11 18 79 35 150 18 72
34 141 36 155 3 14 10 43 16 65 5 22 12 48 13 57 7 32 37 75 65 92 16 9 49 16
75 16 46 0 47 0 40 -27 -4 -16 -9 -36 -11 -46 -2 -10 -5 -26 -8 -35 -3 -9 -7
-28 -10 -42 -2 -14 -9 -45 -16 -70 -7 -25 -14 -56 -16 -70 -3 -14 -7 -31 -9
-38 -3 -8 -30 -122 -61 -255 -31 -133 -65 -278 -75 -322 -31 -132 -32 -138
-23 -134 5 2 42 26 81 54 68 47 76 58 88 115 2 8 8 35 15 60 7 25 14 55 16 68
3 13 18 81 35 150 17 70 32 134 34 142 2 8 13 56 24 105 12 50 24 101 27 115
3 14 12 52 21 85 8 33 17 71 19 85 12 65 16 68 115 62 43 -3 56 -7 55 -18z
m315 -113 c185 -84 526 -170 809 -205 25 -4 54 -8 65 -10 11 -2 47 -7 80 -11
32 -4 66 -8 75 -10 17 -3 143 -17 180 -20 14 -1 67 -5 118 -9 51 -4 112 -9
135 -11 254 -22 908 -22 1207 -1 19 2 87 6 150 11 63 4 122 9 131 10 8 2 53 6
100 10 46 3 95 8 109 10 26 4 94 12 170 20 25 3 59 7 75 10 17 3 48 7 70 10
63 9 161 25 280 47 83 15 128 18 185 13 78 -8 75 -19 -7 -28 -71 -9 -102 -19
-108 -37 -8 -26 -181 -102 -335 -148 -202 -61 -334 -91 -550 -127 -19 -3 -46
-7 -60 -10 -14 -2 -52 -7 -85 -11 -33 -3 -69 -8 -80 -10 -11 -2 -49 -7 -85
-10 -36 -3 -81 -7 -100 -9 -243 -26 -805 -26 -1135 0 -124 10 -202 16 -225 20
-14 2 -56 6 -95 10 -38 4 -78 9 -87 10 -9 2 -43 6 -75 10 -32 3 -67 8 -78 10
-11 3 -37 7 -57 10 -90 12 -149 22 -313 50 -55 10 -139 27 -150 31 -8 3 -11
-138 -10 -473 l0 -478 125 -42 c166 -55 486 -133 654 -159 21 -3 48 -8 60 -10
11 -2 75 -11 141 -19 66 -9 134 -17 150 -20 27 -3 119 -10 270 -20 64 -5 454
-5 520 -1 112 8 221 17 235 21 8 2 42 6 75 10 69 7 279 41 345 56 25 6 56 13
69 15 131 26 433 120 589 185 91 38 161 77 117 66 -11 -3 -33 -8 -50 -11 -45
-9 -77 -16 -105 -21 -69 -13 -213 -34 -275 -40 -38 -4 -77 -8 -85 -10 -54 -14
-402 -21 -726 -16 -83 1 -92 3 -97 21 -8 30 -9 30 188 46 44 3 82 7 85 9 3 2
39 6 80 10 41 4 77 9 80 10 3 2 26 6 50 10 74 10 183 30 270 50 14 3 34 7 45
9 67 13 241 62 344 96 220 72 363 133 271 116 -119 -23 -374 -66 -420 -71 -30
-3 -62 -8 -70 -10 -8 -2 -46 -7 -85 -10 -38 -3 -83 -8 -100 -10 -16 -2 -77 -6
-135 -10 -58 -4 -123 -9 -145 -11 -39 -3 -284 -6 -396 -5 -38 1 -59 6 -62 14
-9 24 7 35 63 41 153 16 419 59 535 86 45 10 92 21 105 24 32 5 202 48 300 75
41 11 140 41 220 66 80 25 168 53 195 61 49 15 52 19 123 134 70 114 74 118
118 129 26 7 49 10 52 7 3 -3 5 -197 6 -432 l1 -426 -47 -43 c-26 -23 -62 -50
-80 -59 -18 -10 -58 -31 -88 -47 -144 -80 -454 -186 -650 -223 -14 -2 -45 -9
-70 -15 -25 -5 -61 -13 -80 -16 -119 -20 -150 -24 -195 -30 -27 -3 -61 -8 -75
-10 -271 -44 -1007 -55 -1375 -21 -87 9 -207 21 -283 31 -61 7 -233 35 -277
45 -22 5 -56 12 -75 15 -19 3 -42 8 -50 10 -8 2 -27 6 -42 9 -121 21 -475 140
-615 207 l-103 49 0 83 c-1 103 -1 1328 0 1345 0 16 -3 16 71 -17z m696 -786
c7 -58 51 -130 123 -202 39 -40 70 -78 68 -85 -13 -37 -111 -50 -176 -22 -101
42 -159 162 -124 254 13 34 73 91 91 88 8 -2 16 -16 18 -33z m541 -172 c-3
-64 48 -151 139 -238 78 -75 69 -104 -33 -110 -194 -12 -304 237 -151 342 39
27 46 28 45 6z m-1748 -27 c0 -33 -45 -68 -94 -73 -64 -8 -59 10 14 55 59 35
80 40 80 18z m115 -143 c0 -61 -8 -74 -41 -68 -10 2 -39 4 -64 4 l-45 1 40 20
c49 23 67 37 89 73 10 15 19 27 20 27 1 0 1 -26 1 -57z m-335 -43 c12 -8 9
-10 -12 -10 -16 0 -28 5 -28 10 0 13 20 13 40 0z m1234 -1445 c36 -123 64
-173 140 -253 48 -51 66 -76 59 -83 -6 -6 -37 -13 -70 -16 -99 -9 -190 44
-233 134 -29 62 -32 162 -6 213 20 39 79 105 83 93 2 -4 14 -44 27 -88z m451
-175 c12 -66 44 -121 119 -199 97 -102 91 -125 -30 -123 -191 1 -284 238 -134
340 18 12 34 21 36 19 2 -1 6 -18 9 -37z m-326 -422 c6 -29 13 -73 16 -98 18
-131 41 -180 125 -270 l52 -55 -39 -8 c-84 -18 -192 14 -231 70 -46 65 -56 97
-56 178 0 68 4 88 26 131 22 42 78 104 93 104 2 0 8 -24 14 -52z m502 -281
c18 -23 66 -75 108 -116 l76 -74 -30 -13 c-51 -22 -134 -17 -193 12 -87 43
-135 123 -134 220 1 52 13 82 48 123 l27 33 33 -72 c18 -39 48 -90 65 -113z
m-223 -566 c26 -36 74 -86 107 -111 33 -26 59 -51 59 -56 -3 -17 -49 -43 -89
-52 -83 -17 -160 21 -201 99 -32 63 -20 145 29 197 21 22 23 23 35 5 6 -10 33
-47 60 -82z"/>
<path d="M3187 6464 c-1 -1 -81 -5 -177 -9 -96 -3 -191 -8 -210 -10 -19 -2
-73 -6 -119 -10 -47 -4 -92 -8 -100 -10 -9 -1 -38 -6 -66 -9 -27 -4 -68 -9
-90 -12 -77 -10 -236 -54 -285 -79 -82 -41 -104 -97 -52 -132 63 -43 142 -67
142 -44 0 12 127 73 195 95 99 31 240 60 347 71 29 4 67 8 84 10 141 19 641
27 787 12 107 -11 177 -37 177 -67 0 -32 -80 -80 -175 -105 -16 -5 -34 -9 -40
-11 -5 -2 -90 -23 -187 -48 -97 -25 -187 -50 -200 -57 l-22 -12 24 -9 c24 -9
535 -5 575 5 11 3 56 8 101 11 44 4 92 8 105 11 13 2 51 6 84 10 32 4 62 8 65
10 3 2 28 6 57 9 108 12 291 59 355 92 119 61 56 131 -176 194 -39 11 -82 21
-96 24 -14 2 -52 9 -85 15 -33 5 -79 13 -102 16 -24 3 -60 7 -80 10 -21 2 -65
7 -98 10 -33 3 -89 8 -125 11 -59 6 -607 13 -613 8z"/>
<path d="M6409 5928 c-24 -18 -46 -35 -49 -38 -3 -3 -33 -27 -68 -54 -58 -44
-82 -51 -82 -23 0 7 -15 22 -33 34 -61 42 -98 27 -348 -138 -184 -122 -206
-144 -233 -231 -17 -57 -20 -189 -6 -253 6 -28 28 -84 49 -125 76 -150 77
-160 26 -437 -3 -16 -8 -46 -11 -68 -3 -22 -8 -47 -11 -55 -3 -8 -7 -207 -9
-443 -2 -447 1 -497 41 -565 44 -73 141 -109 231 -86 27 7 50 13 51 14 1 0 88
-262 193 -582 325 -989 350 -1063 363 -1078 51 -65 125 -74 200 -25 36 24 116
89 179 145 25 23 46 81 41 115 -2 17 -72 237 -155 490 -82 253 -197 604 -255
780 -57 176 -114 349 -127 385 l-22 66 27 27 c47 46 51 83 44 387 -6 308 -7
314 -32 343 -31 34 -73 47 -108 32 -51 -21 -204 -134 -270 -199 -102 -101
-100 -95 -100 -428 0 -275 -1 -288 -21 -315 -11 -15 -32 -30 -45 -34 -39 -9
-88 15 -89 44 0 5 5 5 10 2 6 -4 24 7 40 24 26 26 30 37 32 93 2 83 2 69 -7
188 -4 58 -8 151 -9 206 0 94 2 106 31 165 l31 64 0 496 -1 497 -56 -25 c-30
-14 -73 -25 -96 -26 -39 -2 -40 -1 -43 36 l-3 37 50 0 c28 0 52 0 54 0 1 0 27
7 57 16 72 21 125 49 178 91 49 40 48 43 28 -92 -21 -135 -14 -192 38 -329 39
-100 58 -158 72 -208 1 -5 2 -71 3 -148 l1 -140 40 25 c23 14 52 30 65 35 22
9 24 14 24 97 1 122 -12 185 -75 358 -52 141 -55 154 -50 220 3 39 7 79 9 90
3 11 8 45 13 75 4 30 9 58 10 63 1 4 2 29 3 56 1 47 3 50 44 71 49 26 94 62
196 158 78 74 83 90 43 135 -22 25 -53 21 -103 -15z m-425 -339 c-28 -31 -134
-79 -189 -85 -28 -4 -48 -4 -45 -1 3 3 39 28 80 55 63 41 83 49 124 50 47 1
48 1 30 -19z m203 -1505 c-1 -2 -32 0 -67 4 -49 6 -65 11 -63 22 9 82 16 96
71 148 l57 53 3 -112 c1 -61 1 -113 -1 -115z m-30 -134 c12 0 33 -38 33 -59 0
-15 9 -45 20 -66 18 -35 177 -512 451 -1355 44 -135 87 -265 96 -289 8 -24 24
-70 33 -102 l18 -59 -89 -75 c-49 -42 -94 -73 -99 -70 -5 3 -34 83 -65 178
-72 220 -370 1129 -444 1354 -42 129 -54 178 -48 195 5 13 6 98 3 190 -5 185
-6 184 59 166 16 -4 31 -8 32 -8z"/>
</g>
</svg>
